<svg width="434" height="100" viewBox="0 0 434 100" fill="none" xmlns="http://www.w3.org/2000/svg">
<path d="M25.5605 7.39893C11.4438 7.39902 0 18.8427 0 32.9595C0 39.5064 2.46284 45.4772 6.51074 49.9995C2.46281 54.5217 9.15527e-05 60.4926 0 67.0396C0 81.1563 11.4438 92.601 25.5605 92.6011C32.1079 92.6011 38.0792 90.1376 42.6016 86.0894C47.1239 90.1374 53.0945 92.6011 59.6416 92.6011C73.7583 92.601 85.2021 81.1563 85.2021 67.0396C85.2021 60.4928 82.7401 54.5217 78.6924 49.9995C82.74 45.4773 85.2021 39.5062 85.2021 32.9595C85.2021 18.8428 73.7583 7.39901 59.6416 7.39893C53.0952 7.39893 47.1247 9.86138 42.6025 13.9087C38.0802 9.86048 32.1078 7.39893 25.5605 7.39893Z" fill="#00BF7F"/>
<path d="M148.848 35.3539C148.451 34.9563 147.712 34.4167 146.633 33.7351C145.611 33.0534 144.333 32.4002 142.799 31.7754C141.322 31.1506 139.703 30.611 137.942 30.1566C136.182 29.6453 134.392 29.3897 132.575 29.3897C129.394 29.3897 126.98 29.9862 125.332 31.179C123.742 32.3718 122.947 34.0475 122.947 36.2059C122.947 37.8532 123.458 39.1596 124.48 40.1252C125.503 41.0909 127.037 41.9145 129.081 42.5961C131.126 43.2777 133.682 44.0162 136.75 44.8114C140.726 45.777 144.162 46.9698 147.059 48.3899C150.013 49.7531 152.256 51.5708 153.79 53.8428C155.381 56.0581 156.176 59.0118 156.176 62.7039C156.176 65.9416 155.579 68.7249 154.387 71.0537C153.194 73.3258 151.546 75.1719 149.445 76.5919C147.343 78.0119 144.957 79.0628 142.288 79.7444C139.618 80.3692 136.778 80.6816 133.768 80.6816C130.757 80.6816 127.747 80.3692 124.736 79.7444C121.726 79.1196 118.829 78.2391 116.045 77.1031C113.262 75.9103 110.706 74.4902 108.377 72.843L113.575 62.7039C114.086 63.2151 114.995 63.8967 116.301 64.7488C117.607 65.544 119.198 66.3676 121.072 67.2196C122.947 68.0149 124.992 68.6965 127.207 69.2645C129.422 69.8325 131.666 70.1165 133.938 70.1165C137.119 70.1165 139.533 69.5769 141.18 68.4977C142.827 67.4184 143.651 65.8848 143.651 63.8967C143.651 62.0791 142.998 60.659 141.691 59.6366C140.385 58.6142 138.567 57.7338 136.238 56.9953C133.91 56.2001 131.155 55.3481 127.974 54.4393C124.168 53.36 120.987 52.1672 118.431 50.8608C115.875 49.4975 113.972 47.7935 112.723 45.7486C111.473 43.7038 110.848 41.1477 110.848 38.0804C110.848 33.9339 111.814 30.469 113.745 27.6857C115.733 24.8456 118.403 22.7155 121.754 21.2955C125.105 19.8187 128.826 19.0802 132.916 19.0802C135.756 19.0802 138.425 19.3927 140.925 20.0175C143.481 20.6423 145.866 21.4659 148.082 22.4883C150.297 23.5108 152.285 24.6184 154.046 25.8112L148.848 35.3539ZM168.592 19.5063L183.502 47.9639L198.669 19.5063H211.364L189.381 58.8698V80H177.709V58.6994L155.812 19.5063H168.592ZM265.651 80V40.2957L250.144 69.8609H243.584L228.077 40.2957V80H216.319V19.5063H228.929L246.821 53.928L264.884 19.5063H277.409V80H265.651ZM288.335 80V19.5063H313.981C316.764 19.5063 319.32 20.0743 321.649 21.2103C323.978 22.3463 325.994 23.88 327.698 25.8112C329.459 27.7425 330.822 29.901 331.788 32.2866C332.754 34.6723 333.236 37.1148 333.236 39.614C333.236 43.0221 332.441 46.2598 330.851 49.3271C329.26 52.3944 327.073 54.8937 324.29 56.8249C321.507 58.7562 318.212 59.7218 314.407 59.7218H300.093V80H288.335ZM300.093 49.4123H313.725C315.145 49.4123 316.423 49.0147 317.559 48.2195C318.695 47.4243 319.604 46.2882 320.286 44.8114C320.967 43.2777 321.308 41.5453 321.308 39.614C321.308 37.5124 320.911 35.7231 320.115 34.2463C319.377 32.7694 318.383 31.6618 317.133 30.9234C315.94 30.185 314.634 29.8158 313.214 29.8158H300.093V49.4123ZM339.716 80V19.5063H351.474V69.6905H382.317V80H339.716ZM429.774 69.6905V80H387.769V19.5063H429.007V29.8158H399.527V44.3854H425.002V53.928H399.527V69.6905H429.774Z" fill="#00BF7F"/>
</svg>
